<svg width="19" height="17" fill="none" xmlns="http://www.w3.org/2000/svg"><path d="M.852 17V.2h7.944c1.856 0 3.488.344 4.896 1.032 1.408.688 2.504 1.656 3.288 2.904.8 1.248 1.2 2.736 1.2 4.464 0 1.712-.4 3.2-1.2 4.464-.784 1.248-1.88 2.216-3.288 2.904-1.408.688-3.04 1.032-4.896 1.032H.852Zm4.752-3.792h3c.96 0 1.792-.176 2.496-.528a4.013 4.013 0 0 0 1.68-1.584c.4-.704.6-1.536.6-2.496 0-.976-.2-1.808-.6-2.496a3.863 3.863 0 0 0-1.68-1.56c-.704-.368-1.536-.552-2.496-.552h-3v9.216Z" fill="#333"/></svg>