<svg width="18" height="19" fill="none" xmlns="http://www.w3.org/2000/svg"><path d="M10.08 18.336c-1.328 0-2.56-.208-3.696-.624a8.824 8.824 0 0 1-2.952-1.824 8.564 8.564 0 0 1-1.92-2.76C1.048 12.056.816 10.88.816 9.6c0-1.28.232-2.448.696-3.504a8.324 8.324 0 0 1 1.944-2.784 8.52 8.52 0 0 1 2.952-1.8C7.56 1.08 8.816.864 10.176.864c1.584 0 3 .264 4.248.792 1.248.528 2.28 1.288 3.096 2.28l-3.024 2.736c-.576-.624-1.2-1.088-1.872-1.392-.656-.32-1.392-.48-2.208-.48-.72 0-1.376.112-1.968.336a4.063 4.063 0 0 0-1.512.984c-.416.416-.744.92-.984 1.512-.224.576-.336 1.232-.336 1.968 0 .704.112 1.352.336 1.944.24.592.568 1.104.984 1.536.416.416.912.744 1.488.984.592.224 1.24.336 1.944.336s1.392-.112 2.064-.336c.672-.24 1.352-.64 2.04-1.2l2.664 3.336c-.96.688-2.072 1.216-3.336 1.584a13.268 13.268 0 0 1-3.72.552Zm2.856-2.76V9.24h4.2v6.96l-4.2-.624Z" fill="#333"/></svg>