<svg width="19" height="17" viewBox="0 0 19 17" fill="none" xmlns="http://www.w3.org/2000/svg">
<path d="M0.851875 17V0.199999H8.79588C10.6519 0.199999 12.2839 0.543999 13.6919 1.232C15.0999 1.92 16.1959 2.888 16.9799 4.136C17.7799 5.384 18.1799 6.872 18.1799 8.6C18.1799 10.312 17.7799 11.8 16.9799 13.064C16.1959 14.312 15.0999 15.28 13.6919 15.968C12.2839 16.656 10.6519 17 8.79588 17H0.851875ZM5.60388 13.208H8.60388C9.56388 13.208 10.3959 13.032 11.0999 12.68C11.8199 12.312 12.3799 11.784 12.7799 11.096C13.1799 10.392 13.3799 9.56 13.3799 8.6C13.3799 7.624 13.1799 6.792 12.7799 6.104C12.3799 5.416 11.8199 4.896 11.0999 4.544C10.3959 4.176 9.56388 3.992 8.60388 3.992H5.60388V13.208Z" fill="#333333"/>
</svg>
