<svg width="18" height="19" viewBox="0 0 18 19" fill="none" xmlns="http://www.w3.org/2000/svg">
<path d="M10.08 18.336C8.752 18.336 7.52 18.128 6.384 17.712C5.248 17.28 4.264 16.672 3.432 15.888C2.616 15.104 1.976 14.184 1.512 13.128C1.048 12.056 0.816 10.88 0.816 9.6C0.816 8.32 1.048 7.152 1.512 6.096C1.976 5.024 2.624 4.096 3.456 3.312C4.288 2.528 5.272 1.928 6.408 1.512C7.56 1.08 8.816 0.863999 10.176 0.863999C11.76 0.863999 13.176 1.128 14.424 1.656C15.672 2.184 16.704 2.944 17.52 3.936L14.496 6.672C13.92 6.048 13.296 5.584 12.624 5.28C11.968 4.96 11.232 4.8 10.416 4.8C9.696 4.8 9.04 4.912 8.448 5.136C7.856 5.36 7.352 5.688 6.936 6.12C6.52 6.536 6.192 7.04 5.952 7.632C5.728 8.208 5.616 8.864 5.616 9.6C5.616 10.304 5.728 10.952 5.952 11.544C6.192 12.136 6.52 12.648 6.936 13.08C7.352 13.496 7.848 13.824 8.424 14.064C9.016 14.288 9.664 14.4 10.368 14.4C11.072 14.4 11.76 14.288 12.432 14.064C13.104 13.824 13.784 13.424 14.472 12.864L17.136 16.2C16.176 16.888 15.064 17.416 13.8 17.784C12.536 18.152 11.296 18.336 10.08 18.336ZM12.936 15.576V9.24H17.136V16.2L12.936 15.576Z" fill="#333333"/>
</svg>
